<svg xmlns="http://www.w3.org/2000/svg" xmlns:xlink="http://www.w3.org/1999/xlink">

  <symbol enable-background="new 0 0 256 256" id="ico-close" viewBox="0 0 256 256"  xml:space="preserve" fill="currentColor" stroke="currentColor">
    <path d="M137.051,128l75.475-75.475c2.5-2.5,2.5-6.551,0-9.051s-6.551-2.5-9.051,0L128,118.949L52.525,43.475  c-2.5-2.5-6.551-2.5-9.051,0s-2.5,6.551,0,9.051L118.949,128l-75.475,75.475c-2.5,2.5-2.5,6.551,0,9.051  c1.25,1.25,2.888,1.875,4.525,1.875s3.275-0.625,4.525-1.875L128,137.051l75.475,75.475c1.25,1.25,2.888,1.875,4.525,1.875  s3.275-0.625,4.525-1.875c2.5-2.5,2.5-6.551,0-9.051L137.051,128z"/>
  </symbol>

  <symbol enable-background="new 0 0 32 32" id="ico-arrow-right" viewBox="0 0 32 32"  xml:space="preserve" fill="currentColor" stroke="currentColor">
    <path clip-rule="evenodd" d="M32,16.009c0-0.267-0.11-0.522-0.293-0.714  l-9.899-9.999c-0.391-0.395-1.024-0.394-1.414,0c-0.391,0.394-0.391,1.034,0,1.428l8.193,8.275H1c-0.552,0-1,0.452-1,1.01  s0.448,1.01,1,1.01h27.586l-8.192,8.275c-0.391,0.394-0.39,1.034,0,1.428c0.391,0.394,1.024,0.394,1.414,0l9.899-9.999  C31.894,16.534,31.997,16.274,32,16.009z" fill-rule="evenodd"/>
  </symbol>

  <symbol id="ico-edit" viewBox="0 -1 401.52289 401">
    <path fill="currentColor" stroke="currentColor" d="m370.589844 250.972656c-5.523438 0-10 4.476563-10 10v88.789063c-.019532 16.5625-13.4375 29.984375-30 30h-280.589844c-16.5625-.015625-29.980469-13.4375-30-30v-260.589844c.019531-16.558594 13.4375-29.980469 30-30h88.789062c5.523438 0 10-4.476563 10-10 0-5.519531-4.476562-10-10-10h-88.789062c-27.601562.03125-49.96875 22.398437-50 50v260.59375c.03125 27.601563 22.398438 49.96875 50 50h280.589844c27.601562-.03125 49.96875-22.398437 50-50v-88.792969c0-5.523437-4.476563-10-10-10zm0 0"/>
    <path fill="currentColor" stroke="currentColor" d="m376.628906 13.441406c-17.574218-17.574218-46.066406-17.574218-63.640625 0l-178.40625 178.40625c-1.222656 1.222656-2.105469 2.738282-2.566406 4.402344l-23.460937 84.699219c-.964844 3.472656.015624 7.191406 2.5625 9.742187 2.550781 2.546875 6.269531 3.527344 9.742187 2.566406l84.699219-23.464843c1.664062-.460938 3.179687-1.34375 4.402344-2.566407l178.402343-178.410156c17.546875-17.585937 17.546875-46.054687 0-63.640625zm-220.257812 184.90625 146.011718-146.015625 47.089844 47.089844-146.015625 146.015625zm-9.40625 18.875 37.621094 37.625-52.039063 14.417969zm227.257812-142.546875-10.605468 10.605469-47.09375-47.09375 10.609374-10.605469c9.761719-9.761719 25.589844-9.761719 35.351563 0l11.738281 11.734375c9.746094 9.773438 9.746094 25.589844 0 35.359375zm0 0"/>
  </symbol>

</svg>